<?xml version="1.0" standalone="no"?>
<!DOCTYPE svg PUBLIC "-//W3C//DTD SVG 20010904//EN"
 "http://www.w3.org/TR/2001/REC-SVG-20010904/DTD/svg10.dtd">
<svg version="1.0" xmlns="http://www.w3.org/2000/svg"
 width="90.000000pt" height="90.000000pt" viewBox="0 0 90.000000 90.000000"
 preserveAspectRatio="xMidYMid meet">
<metadata>
Created by potrace 1.14, written by Peter Selinger 2001-2017
</metadata>
<g transform="translate(0.000000,90.000000) scale(0.100000,-0.100000)"
fill="#000000" stroke="none">
<path d="M484 692 c-19 -13 -23 -39 -8 -61 14 -19 14 -22 -3 -27 -10 -3 -33
-12 -51 -20 -18 -8 -38 -14 -46 -14 -22 0 -56 -45 -56 -74 0 -16 9 -43 20 -61
l20 -33 -32 -39 c-18 -21 -49 -58 -68 -82 -19 -24 -41 -50 -49 -58 -7 -8 -11
-16 -8 -19 3 -3 48 31 101 75 l95 81 38 -20 c46 -25 85 -26 106 -2 8 9 27 48
42 85 27 66 28 67 50 53 19 -12 26 -13 41 -2 9 7 18 20 20 29 2 15 -175 197
-192 197 -5 0 -14 -4 -20 -8z"/>
</g>
</svg>
